<svg xmlns="http://www.w3.org/2000/svg" width="99" height="15" viewBox="0 0 99 15" fill="var(--color12)">
    <path d="M98.5714 7.52758C98.1889 7.32737 97.741 7.22726 97.2319 7.22726C96.5393 7.22726 95.9982 7.47076 95.6087 7.95912C95.2193 8.44747 95.0245 9.11034 95.0245 9.95041V14.6892H91.8393V4.76655H95.0245V6.60769H95.0649C95.5684 5.26437 96.4753 4.59204 97.7855 4.59204C98.1208 4.59204 98.3836 4.63127 98.5714 4.70838V7.52758V7.52758Z"></path>
    <path d="M88.7109 5.76186C87.8875 4.89066 86.7233 4.45642 85.2183 4.45642C83.7675 4.45642 82.5435 4.94478 81.5504 5.91878C80.5558 6.89414 80.0593 8.2158 80.0593 9.88514C80.0593 11.4949 80.5197 12.7503 81.4405 13.6499C82.3613 14.5495 83.6535 15 85.3198 15C86.0918 15 86.79 14.9351 87.4173 14.8079L89.0392 12.0171V12.0158C88.1796 12.5393 87.1809 12.8004 86.0459 12.8004C84.2655 12.8004 83.321 12.0712 83.2139 10.6116H89.946V9.30615C89.9447 7.81403 89.5329 6.63305 88.7109 5.76186ZM83.1931 8.70686C83.2737 8.09135 83.5004 7.57729 83.8732 7.16604C84.246 6.75345 84.6883 6.54782 85.1988 6.54782C86.395 6.54782 86.9931 7.2675 86.9931 8.70822H83.1931V8.70686Z"></path>
    <path d="M78.1553 14.6888H74.9811V9.1762C74.9811 7.63944 74.4109 6.8697 73.2689 6.8697C72.7181 6.8697 72.2646 7.07262 71.9086 7.47981C71.5525 7.88699 71.3744 8.40376 71.3744 9.0301V14.6888H68.1892V4.76748H71.3744V6.33671H71.4148C72.1742 5.12867 73.2786 4.52533 74.7294 4.52533C77.0133 4.52533 78.1553 5.88893 78.1553 8.61344V14.6888Z"></path>
    <path d="M65.5088 4.76721H62.3236V14.6885H65.5088V4.76721Z"></path>
    <path d="M63.9357 3.61587C63.3988 3.61587 62.9579 3.44136 62.6157 3.0937C62.2735 2.74603 62.1011 2.31991 62.1011 1.81532C62.1011 1.29585 62.2721 0.871076 62.6157 0.542349C62.9579 0.213623 63.3974 0.048584 63.9357 0.048584C64.4809 0.048584 64.9219 0.213623 65.2613 0.542349C65.6006 0.871076 65.7703 1.29585 65.7703 1.81532C65.7703 2.3429 65.6006 2.77444 65.2613 3.11128C64.9219 3.44813 64.4796 3.61587 63.9357 3.61587Z"></path>
    <path d="M59.8044 14.6888H56.6303V9.0301C56.6303 7.58938 56.0795 6.8697 54.9779 6.8697C54.4535 6.8697 54.0265 7.08615 53.6982 7.51904C53.3686 7.95193 53.2044 8.49169 53.2044 9.13697V14.6888H50.0206V8.97193C50.0206 7.57044 49.4795 6.8697 48.3987 6.8697C47.8549 6.8697 47.4195 7.07668 47.0927 7.48928C46.7672 7.90323 46.6044 8.46463 46.6044 9.17484V14.6874H43.4206V4.76748H46.6044V6.31777H46.6448C46.9744 5.78883 47.4362 5.35729 48.0302 5.02451C48.6241 4.69172 49.275 4.52533 49.9802 4.52533C51.4379 4.52533 52.4352 5.1422 52.9735 6.37594C53.7594 5.1422 54.9153 4.52533 56.4397 4.52533C58.6833 4.52533 59.8058 5.85647 59.8058 8.51739V14.6888H59.8044Z"></path>
    <path d="M40.8989 14.6888H37.8861V13.2643H37.8458C37.1531 14.3749 36.1293 14.9309 34.7718 14.9309C33.7703 14.9309 32.9831 14.6577 32.4086 14.1125C31.8341 13.5673 31.5476 12.8382 31.5476 11.9278C31.5476 10.0027 32.7341 8.89211 35.1056 8.5945L37.907 8.23601C37.907 7.15108 37.2949 6.60862 36.0723 6.60862C34.8427 6.60862 33.6743 6.96169 32.5658 7.66514V5.35864C33.0081 5.13949 33.6145 4.94605 34.3851 4.77695C35.1543 4.6092 35.8539 4.52533 36.4868 4.52533C39.4286 4.52533 40.9002 5.93628 40.9002 8.75954V14.6888H40.8989ZM37.907 10.6575V9.98922L36.032 10.2219C34.9971 10.3518 34.4797 10.8009 34.4797 11.5693C34.4797 11.9183 34.6049 12.2037 34.858 12.4269C35.1098 12.6488 35.4506 12.7611 35.8804 12.7611C36.4785 12.7611 36.9653 12.5622 37.3408 12.1645C37.7178 11.7668 37.907 11.2649 37.907 10.6575Z"></path>
    <path d="M30.5199 14.5722C30.0497 14.8116 29.3404 14.9307 28.3931 14.9307C26.1496 14.9307 25.0271 13.8106 25.0271 11.569V7.025H23.3538V4.76721H25.0271L25.0299 3.03159L28.2012 0V4.76721H30.5185V7.025H28.2012V11.036C28.2012 12.0695 28.6282 12.5863 29.4808 12.5863C29.8161 12.5863 30.1624 12.493 30.5185 12.3049V14.5722H30.5199Z"></path>
    <path d="M21.7625 14.6888H18.7497V13.2643H18.7094C18.0167 14.3749 16.993 14.9309 15.6354 14.9309C14.634 14.9309 13.8467 14.6577 13.2722 14.1125C12.6978 13.5673 12.4099 12.8382 12.4099 11.9278C12.4099 10.0027 13.5949 8.89211 15.9665 8.5945L18.7678 8.23601C18.7678 7.15108 18.1558 6.60862 16.9332 6.60862C15.7036 6.60862 14.5352 6.96169 13.4266 7.66514V5.35864C13.8703 5.13949 14.4768 4.94605 15.246 4.77695C16.0152 4.6092 16.7148 4.52533 17.3463 4.52533C20.2895 4.52533 21.7597 5.93628 21.7597 8.75954V14.6888H21.7625ZM18.7692 10.6575V9.98922L16.8942 10.2219C15.8594 10.3518 15.342 10.8009 15.342 11.5693C15.342 11.9183 15.4671 12.2037 15.7189 12.4269C15.9707 12.6488 16.3114 12.7611 16.7412 12.7611C17.3393 12.7611 17.8262 12.5622 18.2031 12.1645C18.5814 11.7668 18.7692 11.2649 18.7692 10.6575Z"></path>
    <path d="M7.48323 5.89002V3.03159L10.713 0V14.6885H7.52913V13.3222H7.48879C6.76272 14.395 5.69866 14.9307 4.29381 14.9307C3.00442 14.9307 1.96678 14.4924 1.17951 13.6171C0.393634 12.7419 0 11.5189 0 9.94972C0 8.30879 0.433971 6.99524 1.30052 6.00636C2.16707 5.01747 3.30208 4.52371 4.70692 4.52371C6.03665 4.52371 6.96441 4.9823 7.48879 5.89949M7.58894 9.86314V9.1164C7.58894 8.47113 7.39421 7.93407 7.00474 7.50795C6.61528 7.08182 6.10759 6.86808 5.48306 6.86808C4.77786 6.86808 4.22705 7.13458 3.83063 7.66757C3.43422 8.20057 3.2367 8.93243 3.2367 9.86179C3.2367 10.733 3.42865 11.4053 3.81116 11.8774C4.19367 12.3482 4.725 12.5849 5.40378 12.5849C6.04917 12.5849 6.57355 12.336 6.9811 11.8396C7.38586 11.3417 7.58894 10.6829 7.58894 9.86314Z"></path>
</svg>